<?xml version="1.0" encoding="UTF-8" standalone="no"?>
<!-- Generator: Adobe Illustrator 16.0.0, SVG Export Plug-In . SVG Version: 6.00 Build 0)  -->

<svg
   xmlns:dc="http://purl.org/dc/elements/1.1/"
   xmlns:cc="http://creativecommons.org/ns#"
   xmlns:rdf="http://www.w3.org/1999/02/22-rdf-syntax-ns#"
   xmlns:svg="http://www.w3.org/2000/svg"
   xmlns="http://www.w3.org/2000/svg"
   xmlns:sodipodi="http://sodipodi.sourceforge.net/DTD/sodipodi-0.dtd"
   xmlns:inkscape="http://www.inkscape.org/namespaces/inkscape"
   version="1.1"
   id="Capa_1"
   x="0px"
   y="0px"
   width="44mm"
   height="44mm"
   viewBox="0 0 166.2992 166.29921"
   xml:space="preserve"
   sodipodi:docname="signal-bars.svg"
   inkscape:version="0.92.2 (5c3e80d, 2017-08-06)"><metadata
     id="metadata51"><rdf:RDF><cc:Work
         rdf:about=""><dc:format>image/svg+xml</dc:format><dc:type
           rdf:resource="http://purl.org/dc/dcmitype/StillImage" /><dc:title></dc:title></cc:Work></rdf:RDF></metadata><defs
     id="defs49" /><sodipodi:namedview
     pagecolor="#ffffff"
     bordercolor="#666666"
     borderopacity="1"
     objecttolerance="10"
     gridtolerance="10"
     guidetolerance="10"
     inkscape:pageopacity="0"
     inkscape:pageshadow="2"
     inkscape:window-width="2048"
     inkscape:window-height="1073"
     id="namedview47"
     showgrid="false"
     units="mm"
     inkscape:zoom="1.4189477"
     inkscape:cx="177.75219"
     inkscape:cy="-49.044271"
     inkscape:window-x="-9"
     inkscape:window-y="-9"
     inkscape:window-maximized="1"
     inkscape:current-layer="g12" /><g
     id="g14"
     transform="translate(0,-345.32781)"><g
       id="g12"
       transform="matrix(0.41368992,0,0,0.37921797,-25.624763,329.82432)"><path
         style="stroke-width:0.39607909"
         d="M 139.84375 0 C 138.74251 0 137.83602 0.32462977 137.12695 0.97460938 C 136.41789 1.6226929 136.0625 2.452654 136.0625 3.4628906 L 136.0625 162.83594 C 136.0625 163.84655 136.41789 164.67651 137.12695 165.32422 C 137.83643 165.97572 138.74251 166.29883 139.84375 166.29883 L 162.51953 166.29883 C 163.62367 166.29883 164.52798 165.97534 165.23828 165.32422 C 165.9461 164.67651 166.29883 163.84655 166.29883 162.83594 L 166.29883 3.4628906 C 166.29883 2.452654 165.9461 1.6230721 165.23828 0.97460938 C 164.52756 0.32462977 163.62367 0 162.51953 0 L 139.84375 0 z M 94.488281 55.433594 C 93.385384 55.433594 92.478596 55.75665 91.769531 56.40625 C 91.062949 57.05623 90.708984 57.887442 90.708984 58.898438 L 90.708984 162.83594 C 90.708984 163.84655 91.062949 164.67651 91.769531 165.32422 C 92.478596 165.97572 93.385384 166.29883 94.488281 166.29883 L 117.16602 166.29883 C 118.26891 166.29883 119.17469 165.97534 119.88086 165.32422 C 120.59158 164.67651 120.94336 163.84655 120.94336 162.83594 L 120.94336 58.898438 C 120.94336 57.887442 120.59116 57.05623 119.88086 56.40625 C 119.17469 55.75665 118.26891 55.433594 117.16602 55.433594 L 94.488281 55.433594 z M 49.134766 97.009766 C 48.031455 97.009766 47.12662 97.33358 46.417969 97.982422 C 45.710145 98.631264 45.353516 99.461225 45.353516 100.4707 L 45.353516 162.83594 C 45.353516 163.84655 45.708904 164.67651 46.417969 165.32422 C 47.12662 165.97572 48.031041 166.29883 49.134766 166.29883 L 71.8125 166.29883 C 72.914984 166.29883 73.820761 165.97534 74.527344 165.32422 C 75.235167 164.67651 75.591797 163.84655 75.591797 162.83594 L 75.591797 100.4707 C 75.591797 99.461225 75.235167 98.630885 74.527344 97.982422 C 73.821175 97.33358 72.914984 97.009766 71.8125 97.009766 L 49.134766 97.009766 z M 3.7792969 124.72656 C 2.6759859 124.72656 1.7711508 125.05038 1.0625 125.69922 C 0.35467655 126.34806 0 127.17802 0 128.1875 L 0 162.83203 C 0 163.84416 0.35343548 164.67538 1.0625 165.32422 C 1.7711508 165.97306 2.6755722 166.29687 3.7792969 166.29688 L 26.457031 166.29688 C 27.558688 166.29688 28.464764 165.97306 29.173828 165.32422 C 29.880824 164.67538 30.236328 163.84416 30.236328 162.83203 L 30.236328 128.1875 C 30.236328 127.17802 29.880824 126.34768 29.173828 125.69922 C 28.464764 125.05076 27.558274 124.72656 26.457031 124.72656 L 3.7792969 124.72656 z "
         transform="matrix(2.4172694,0,0,2.6370058,61.941956,40.882794)"
         id="path4" /></g></g><g
     id="g16"
     transform="translate(0,-345.32781)" /><g
     id="g18"
     transform="translate(0,-345.32781)" /><g
     id="g20"
     transform="translate(0,-345.32781)" /><g
     id="g22"
     transform="translate(0,-345.32781)" /><g
     id="g24"
     transform="translate(0,-345.32781)" /><g
     id="g26"
     transform="translate(0,-345.32781)" /><g
     id="g28"
     transform="translate(0,-345.32781)" /><g
     id="g30"
     transform="translate(0,-345.32781)" /><g
     id="g32"
     transform="translate(0,-345.32781)" /><g
     id="g34"
     transform="translate(0,-345.32781)" /><g
     id="g36"
     transform="translate(0,-345.32781)" /><g
     id="g38"
     transform="translate(0,-345.32781)" /><g
     id="g40"
     transform="translate(0,-345.32781)" /><g
     id="g42"
     transform="translate(0,-345.32781)" /><g
     id="g44"
     transform="translate(0,-345.32781)" /></svg>