<?xml version="1.0" encoding="UTF-8" standalone="no"?>
<svg
   xmlns:dc="http://purl.org/dc/elements/1.1/"
   xmlns:cc="http://creativecommons.org/ns#"
   xmlns:rdf="http://www.w3.org/1999/02/22-rdf-syntax-ns#"
   xmlns:svg="http://www.w3.org/2000/svg"
   xmlns="http://www.w3.org/2000/svg"
   xmlns:sodipodi="http://sodipodi.sourceforge.net/DTD/sodipodi-0.dtd"
   xmlns:inkscape="http://www.inkscape.org/namespaces/inkscape"
   version="1.1"
   viewBox="0 0 44 44"
   enable-background="new 0 0 44 44"
   id="svg14"
   sodipodi:docname="ethernet.svg"
   inkscape:version="0.92.2 (5c3e80d, 2017-08-06)">
  <metadata
     id="metadata20">
    <rdf:RDF>
      <cc:Work
         rdf:about="">
        <dc:format>image/svg+xml</dc:format>
        <dc:type
           rdf:resource="http://purl.org/dc/dcmitype/StillImage" />
      </cc:Work>
    </rdf:RDF>
  </metadata>
  <defs
     id="defs18" />
  <sodipodi:namedview
     pagecolor="#ffffff"
     bordercolor="#666666"
     borderopacity="1"
     objecttolerance="10"
     gridtolerance="10"
     guidetolerance="10"
     inkscape:pageopacity="0"
     inkscape:pageshadow="2"
     inkscape:window-width="2048"
     inkscape:window-height="1073"
     id="namedview16"
     showgrid="false"
     inkscape:zoom="5.3636364"
     inkscape:cx="22"
     inkscape:cy="22"
     inkscape:window-x="-9"
     inkscape:window-y="-9"
     inkscape:window-maximized="1"
     inkscape:current-layer="svg14" />
  <g
     id="g6">
    <g
       id="g4">
      <path
         d="M 35 0 C 33.896 0 33 0.896 33 2 L 32 2 C 30.896 2 30 2.896 30 4 L 2 4 C 0.896 4 0 4.896 0 6 L 0 32 C 0 33.104 0.896 34 2 34 L 13 34 L 13 39 L 11 39 C 10.448 39 10 39.447 10 40 C 10 40.553 10.448 41 11 41 L 28 41 C 28.552 41 29 40.553 29 40 C 29 39.447 28.552 39 28 39 L 26 39 L 26 34 L 34 34 L 34 44 L 36 44 L 36 20 L 38 20 L 38 44 L 40 44 L 40 20 L 42 20 C 43.104 20 44 19.104 44 18 L 44 4 C 44 2.896 43.104 2 42 2 L 41 2 C 41 0.896 40.104 0 39 0 L 35 0 z M 35 2 L 39 2 L 39 8 L 35 8 L 35 2 z M 32 4 L 33 4 L 33 8 C 33 9.104 33.896 10 35 10 L 39 10 C 40.104 10 41 9.104 41 8 L 41 4 L 42 4 L 42 18 L 32 18 L 32 4 z M 2 6 L 30 6 L 30 18 C 30 19.104 30.896 20 32 20 L 34 20 L 34 28 L 4 28 C 3.448 28 3 28.447 3 29 C 3 29.553 3.448 30 4 30 L 34 30 L 34 32 L 2 32 L 2 6 z M 15 34 L 24 34 L 24 39 L 15 39 L 15 34 z "
         id="path2" />
    </g>
  </g>
  <g
     id="g12">
    <g
       id="g10" />
  </g>
</svg>
